<svg xmlns="http://www.w3.org/2000/svg" xml:space="preserve" width="2048" height="2048" style="shape-rendering:geometricPrecision;text-rendering:geometricPrecision;image-rendering:optimizeQuality;fill-rule:evenodd;clip-rule:evenodd"><defs><style>.fil0{fill:#212121;fill-rule:nonzero}</style></defs><g id="Layer_x0020_1"><path class="fil0" d="M992.124 601.438c0 17.604 14.271 31.876 31.876 31.876 17.604 0 31.875-14.272 31.875-31.876L1055.874 288c0-17.604-14.271-31.876-31.876-31.876-17.604 0-31.875 14.272-31.875 31.876l.001 313.438z"/><path class="fil0" d="m1245.31 422.664-207.059 103.528-14.25-28.5 14.31 28.622c-15.807 7.902-35.029 1.495-42.932-14.312A31.852 31.852 0 0 1 992 497.241V288c0-17.673 14.328-32 32.001-32 6.207 0 12 1.768 16.906 4.827l207.037 103.52-14.25 28.5 14.312-28.622c15.806 7.904 22.214 27.126 14.31 42.933a31.885 31.885 0 0 1-17.006 15.505zm-189.308 23.404 106.442-53.22-106.442-53.223v106.442zM809.078 1157.52H846.7l49.06 72.089v-72.089h37.955v130.31H895.76l-48.817-71.54v71.54h-37.864v-130.31zm216.9 83.101v-27.093h62.196v55.552c-11.893 8.101-22.421 13.654-31.584 16.565-9.162 2.943-20.023 4.4-32.584 4.4-15.474 0-28.066-2.64-37.804-7.919-9.769-5.248-17.323-13.108-22.664-23.544-5.37-10.437-8.07-22.391-8.07-35.892 0-14.229 2.943-26.607 8.797-37.136 5.887-10.497 14.473-18.476 25.79-23.938 8.828-4.216 20.721-6.31 35.65-6.31 14.38 0 25.152 1.303 32.311 3.913 7.13 2.61 13.047 6.644 17.78 12.137 4.702 5.46 8.252 12.408 10.618 20.842l-38.835 6.918c-1.608-4.916-4.338-8.676-8.161-11.285-3.793-2.61-8.678-3.914-14.594-3.914-8.829 0-15.867 3.063-21.117 9.191-5.248 6.16-7.887 15.839-7.887 29.127 0 14.108 2.67 24.18 7.98 30.219 5.279 6.037 12.68 9.072 22.178 9.072 4.49 0 8.798-.669 12.863-1.973 4.095-1.305 8.8-3.52 14.047-6.643v-12.289h-26.91zm81.037-17.87c0-21.27 5.947-37.834 17.779-49.667 11.862-11.863 28.368-17.779 49.514-17.779 21.693 0 38.41 5.826 50.152 17.477 11.712 11.62 17.597 27.942 17.597 48.906 0 15.232-2.578 27.731-7.706 37.47-5.126 9.739-12.53 17.325-22.209 22.756-9.708 5.43-21.754 8.13-36.225 8.13-14.685 0-26.851-2.336-36.499-7.008-9.618-4.702-17.415-12.105-23.422-22.24-5.978-10.133-8.981-22.815-8.981-38.045zm40.29.18c0 13.169 2.43 22.605 7.313 28.37 4.885 5.734 11.56 8.617 19.963 8.617 8.647 0 15.353-2.822 20.086-8.435 4.734-5.644 7.13-15.747 7.13-30.31 0-12.288-2.489-21.237-7.434-26.911-4.945-5.644-11.65-8.465-20.146-8.465-8.101 0-14.623 2.85-19.538 8.616-4.915 5.735-7.373 15.26-7.373 28.519z"/><path class="fil0" d="M320.001 1728h1408v-656.339h-1408V1728zm1440 64.002h-1472c-17.673 0-32-14.328-32-32.001V1039.66c0-17.673 14.327-32.001 32-32.001h1472c17.673 0 32 14.328 32 32v720.342c0 17.673-14.327 32-32 32zM648.169 569.19h751.661c17.673 0 32 14.328 32 32v210.157c0 17.673-14.327 32-32 32H648.169c-17.673 0-32-14.327-32-32V601.19c0-17.673 14.327-32.001 32-32.001zm719.66 64.002h-687.66v146.154h687.66V633.192z"/><path class="fil0" d="M460.936 1007.66h1126.13V843.348H460.936v164.312zm1158.13 64.002H428.936c-17.673 0-32-14.328-32-32.001V811.348c0-17.673 14.327-32.001 32-32.001h1190.13c17.673 0 32 14.328 32 32v228.314c0 17.673-14.327 32-32 32zM868.086 1728h311.828v-296.17H868.086V1728zm343.829 64.002H836.086c-17.673 0-32-14.328-32-32.001v-360.172c0-17.673 14.327-32.001 32-32.001h375.829c17.673 0 32 14.328 32 32v360.173c0 17.673-14.327 32-32 32z"/></g><path style="fill:none" d="M0 0h2048v2048H0z"/></svg>