<svg width="77" height="73" viewBox="0 0 77 73" fill="none" xmlns="http://www.w3.org/2000/svg">
<path d="M73.1099 3.88995C72.3405 3.88995 71.5883 4.11811 70.9486 4.54556C70.3089 4.97301 69.8103 5.58057 69.5158 6.29139C69.2214 7.00222 69.1444 7.7844 69.2945 8.53901C69.4446 9.29362 69.8151 9.98677 70.3591 10.5308C70.9032 11.0749 71.5963 11.4454 72.3509 11.5955C73.1055 11.7456 73.8877 11.6685 74.5985 11.3741C75.3094 11.0797 75.9169 10.581 76.3444 9.94132C76.7718 9.30159 77 8.54948 77 7.78008C76.9989 6.7487 76.5886 5.75989 75.8593 5.0306C75.13 4.3013 74.1412 3.89109 73.1099 3.88995ZM73.1099 9.07679C72.8534 9.07679 72.6027 9.00074 72.3894 8.85826C72.1762 8.71577 72.01 8.51325 71.9119 8.27631C71.8137 8.03937 71.788 7.77864 71.8381 7.52711C71.8881 7.27557 72.0116 7.04452 72.1929 6.86317C72.3743 6.68182 72.6053 6.55832 72.8569 6.50829C73.1084 6.45825 73.3691 6.48393 73.6061 6.58208C73.843 6.68022 74.0455 6.84643 74.188 7.05967C74.3305 7.27291 74.4066 7.52362 74.4066 7.78008C74.4061 8.12385 74.2694 8.45342 74.0263 8.6965C73.7832 8.93959 73.4536 9.07635 73.1099 9.07679Z" fill="white"/>
<path d="M9.57108 10.3735C10.2872 10.3735 10.8678 9.79295 10.8678 9.0768C10.8678 8.36065 10.2872 7.78009 9.57108 7.78009C8.85492 7.78009 8.27437 8.36065 8.27437 9.0768C8.27437 9.79295 8.85492 10.3735 9.57108 10.3735Z" fill="white"/>
<path d="M19.2964 53.1649C18.1423 53.1649 17.0142 53.5072 16.0546 54.1484C15.095 54.7895 14.3471 55.7009 13.9054 56.7671C13.4638 57.8334 13.3482 59.0066 13.5734 60.1385C13.7985 61.2704 14.3543 62.3102 15.1703 63.1262C15.9864 63.9423 17.0261 64.4981 18.158 64.7232C19.29 64.9484 20.4632 64.8328 21.5295 64.3912C22.5957 63.9495 23.507 63.2016 24.1482 62.242C24.7894 61.2824 25.1316 60.1542 25.1316 59.0001C25.1299 57.4531 24.5146 55.9699 23.4206 54.8759C22.3267 53.782 20.8435 53.1667 19.2964 53.1649Z" fill="white"/>
<path d="M49.7691 20.7472C51.2014 20.7472 52.3625 19.5861 52.3625 18.1538C52.3625 16.7215 51.2014 15.5604 49.7691 15.5604C48.3368 15.5604 47.1757 16.7215 47.1757 18.1538C47.1757 19.5861 48.3368 20.7472 49.7691 20.7472Z" fill="white"/>
<path d="M31.6151 20.7472C33.0475 20.7472 34.2086 19.5861 34.2086 18.1538C34.2086 16.7215 33.0475 15.5604 31.6151 15.5604C30.1828 15.5604 29.0217 16.7215 29.0217 18.1538C29.0217 19.5861 30.1828 20.7472 31.6151 20.7472Z" fill="white"/>
<path d="M43.2855 70.0222H32.1572L33.479 61.3861C35.8419 61.9509 38.2626 62.2381 40.6921 62.2419H64.0329C64.3768 62.2419 64.7066 62.1053 64.9498 61.8621C65.193 61.6189 65.3296 61.2891 65.3296 60.9452C65.3296 60.6013 65.193 60.2715 64.9498 60.0283C64.7066 59.7851 64.3768 59.6485 64.0329 59.6485H53.1119C58.2403 57.4168 62.6724 53.8441 65.9418 49.3063C69.2113 44.7685 71.1973 39.4333 71.6908 33.8622C72.1843 28.2911 71.1671 22.6899 68.7463 17.648C66.3254 12.6062 62.5904 8.30997 57.9342 5.21148C53.278 2.11299 47.8727 0.326762 42.2871 0.0407266C36.7014 -0.245309 31.142 0.979423 26.1936 3.58607C21.2452 6.19271 17.0908 10.0849 14.1676 14.8531C11.2444 19.6213 9.66039 25.0893 9.58224 30.6817L7.49116 31.5729C7.31483 31.6503 7.15834 31.7667 7.03347 31.9134C6.90859 32.06 6.81858 32.233 6.77019 32.4194L6.01965 30.767C5.87726 30.454 5.61644 30.2103 5.29448 30.0894C4.97253 29.9685 4.61576 29.9804 4.30255 30.1224L0.760719 31.7312C0.60563 31.8016 0.46593 31.9019 0.349597 32.0263C0.233265 32.1507 0.14258 32.2968 0.0827208 32.4563C0.0228621 32.6157 -0.00499703 32.7854 0.000734452 32.9556C0.00646593 33.1258 0.0456758 33.2933 0.116125 33.4483L5.53832 45.3847H4.67082C4.48395 45.3847 4.2993 45.4251 4.12951 45.5032C3.95972 45.5812 3.8088 45.695 3.68709 45.8368C3.56538 45.9786 3.47576 46.145 3.42435 46.3247C3.37295 46.5044 3.36099 46.693 3.38928 46.8777L7.16102 71.5152C7.20792 71.8214 7.36289 72.1007 7.59789 72.3026C7.83289 72.5044 8.13239 72.6154 8.44217 72.6156H43.2855C43.6294 72.6156 43.9593 72.479 44.2024 72.2358C44.4456 71.9926 44.5822 71.6628 44.5822 71.3189C44.5822 70.975 44.4456 70.6451 44.2024 70.402C43.9593 70.1588 43.6294 70.0222 43.2855 70.0222ZM14.9244 32.4306L16.2066 32.6243L14.2744 45.3847H12.963L14.9244 32.4306ZM24.948 27.3703L26.2041 27.6887L24.9074 32.8018L24.6041 32.8477C24.4357 32.8732 24.274 32.9317 24.1282 33.0197C23.9824 33.1077 23.8554 33.2236 23.7544 33.3607C23.6534 33.4978 23.5804 33.6535 23.5396 33.8188C23.4987 33.9841 23.4909 34.1559 23.5164 34.3243L23.8925 36.8058L21.7187 45.3847H20.3806L24.948 27.3703ZM30.3184 35.9257L31.5892 32.9418L32.7822 33.4503L30.6876 38.3657L30.3184 35.9257ZM34.3382 31.2942L31.8116 30.218C31.8908 30.0989 31.9978 30.0009 32.1232 29.9323C32.2487 29.8637 32.3889 29.8266 32.5319 29.8242H35.0058L34.3382 31.2942ZM28.799 43.2161C28.8141 43.2678 28.8325 43.3185 28.8542 43.3679L27.9381 45.3847H27.8158L26.2765 35.2174L27.5587 35.0237L28.799 43.2161ZM36.9921 31.7236L38.1721 32.2599L32.2106 45.3847H30.7869L36.9921 31.7236ZM40.6921 2.59327C44.73 2.59058 48.7224 3.44512 52.4054 5.10036C56.0884 6.7556 59.3781 9.17384 62.0569 12.1952C64.7356 15.2165 66.7425 18.7721 67.9448 22.6268C69.1471 26.4815 69.5173 30.5476 69.0311 34.556C68.5449 38.5645 67.2133 42.4241 65.1243 45.8796C63.0353 49.3351 60.2365 52.3078 56.9131 54.601C53.5897 56.8943 49.8173 58.4559 45.8453 59.1827C41.8734 59.9094 37.7924 59.7846 33.8723 58.8167L35.6998 46.8777C35.7447 46.6068 35.7001 46.3286 35.5727 46.0852C35.4454 45.8419 35.2422 45.6467 34.994 45.5291L38.6525 37.4748C39.3368 37.5585 40.0255 37.6018 40.7149 37.6044C45.1952 37.6044 49.3537 35.8696 51.5684 33.0767C51.9994 32.538 52.2684 31.888 52.3442 31.2023C52.4199 30.5166 52.2993 29.8235 51.9963 29.2037C51.7183 28.6138 51.2784 28.1151 50.7277 27.7658C50.1771 27.4165 49.5385 27.2309 48.8864 27.2307H32.5319C31.9725 27.2306 31.4215 27.3666 30.9264 27.627C30.4313 27.8875 30.0071 28.2645 29.6903 28.7256C29.365 29.1817 29.1519 29.708 29.0682 30.262C28.9844 30.8159 29.0325 31.3817 29.2085 31.9136L29.0334 32.3245C28.8465 32.2612 28.6477 32.2408 28.4518 32.265L27.6908 32.3802L29.0375 27.0687C29.122 26.7353 29.0705 26.3822 28.8946 26.0868C28.7186 25.7914 28.4325 25.5779 28.0992 25.4934L24.3288 24.5374C24.1638 24.4954 23.992 24.4863 23.8235 24.5108C23.6549 24.5352 23.4929 24.5927 23.3465 24.6798C23.2002 24.767 23.0725 24.8821 22.9707 25.0187C22.869 25.1552 22.7951 25.3105 22.7534 25.4757L21.2415 31.4387V25.934C21.2415 25.5901 21.1049 25.2603 20.8617 25.0171C20.6185 24.7739 20.2887 24.6373 19.9448 24.6373H16.0546C15.7107 24.6373 15.3809 24.7739 15.1377 25.0171C14.8945 25.2603 14.7579 25.5901 14.7579 25.934V29.7816L14.0318 29.6715C13.6917 29.6214 13.3456 29.7069 13.068 29.9096C12.8644 30.0695 12.714 30.2872 12.6365 30.5342C12.5236 30.3624 12.3706 30.2206 12.1906 30.1211C12.4568 22.7367 15.575 15.7429 20.89 10.6095C26.205 5.47608 33.3029 2.60273 40.6921 2.59327ZM3.01414 33.5566L4.19415 33.0203L9.81019 45.3847H8.3868L3.01414 33.5566ZM9.55526 70.0222L6.18058 47.9781H32.9081L29.5333 70.0222H9.55526Z" fill="white"/>
<path d="M73.1098 70.0222H49.7691C49.4252 70.0222 49.0953 70.1588 48.8521 70.402C48.609 70.6451 48.4724 70.975 48.4724 71.3189C48.4724 71.6628 48.609 71.9926 48.8521 72.2358C49.0953 72.479 49.4252 72.6156 49.7691 72.6156H73.1098C73.4537 72.6156 73.7836 72.479 74.0267 72.2358C74.2699 71.9926 74.4065 71.6628 74.4065 71.3189C74.4065 70.975 74.2699 70.6451 74.0267 70.402C73.7836 70.1588 73.4537 70.0222 73.1098 70.0222Z" fill="white"/>
</svg>
