<svg width="103" height="97" viewBox="0 0 103 97" fill="none" xmlns="http://www.w3.org/2000/svg">
<g opacity="0.1">
<path d="M97.6602 5.19621C96.6324 5.19621 95.6278 5.50097 94.7732 6.07196C93.9187 6.64296 93.2526 7.45453 92.8593 8.40405C92.466 9.35358 92.3631 10.3984 92.5636 11.4064C92.7641 12.4144 93.259 13.3403 93.9858 14.0671C94.7125 14.7938 95.6384 15.2887 96.6464 15.4892C97.6544 15.6897 98.6992 15.5868 99.6488 15.1935C100.598 14.8002 101.41 14.1342 101.981 13.2796C102.552 12.4251 102.857 11.4204 102.857 10.3926C102.855 9.01493 102.307 7.69407 101.333 6.71988C100.359 5.74568 99.0379 5.19772 97.6602 5.19621ZM97.6602 12.1248C97.3176 12.1248 96.9827 12.0232 96.6979 11.8329C96.413 11.6425 96.191 11.372 96.0599 11.0555C95.9288 10.739 95.8945 10.3907 95.9613 10.0547C96.0282 9.71871 96.1931 9.41008 96.4354 9.16783C96.6776 8.92559 96.9863 8.76061 97.3223 8.69378C97.6583 8.62694 98.0065 8.66125 98.323 8.79235C98.6396 8.92345 98.9101 9.14546 99.1004 9.43031C99.2907 9.71516 99.3923 10.0501 99.3923 10.3926C99.3917 10.8519 99.209 11.2921 98.8843 11.6168C98.5596 11.9415 98.1194 12.1242 97.6602 12.1248Z" fill="#FF7A00"/>
<path d="M12.7851 13.8569C13.7418 13.8569 14.5173 13.0814 14.5173 12.1248C14.5173 11.1682 13.7418 10.3926 12.7851 10.3926C11.8285 10.3926 11.053 11.1682 11.053 12.1248C11.053 13.0814 11.8285 13.8569 12.7851 13.8569Z" fill="#FF7A00"/>
<path d="M25.7761 71.0178C24.2345 71.0178 22.7275 71.4749 21.4456 72.3314C20.1638 73.1879 19.1647 74.4053 18.5748 75.8296C17.9848 77.2538 17.8305 78.8211 18.1312 80.3331C18.432 81.8451 19.1744 83.234 20.2645 84.3241C21.3546 85.4142 22.7434 86.1566 24.2554 86.4573C25.7675 86.7581 27.3347 86.6037 28.759 86.0138C30.1833 85.4238 31.4006 84.4248 32.2571 83.1429C33.1136 81.8611 33.5708 80.3541 33.5708 78.8125C33.5685 76.7459 32.7465 74.7646 31.2852 73.3033C29.8239 71.842 27.8427 71.0201 25.7761 71.0178Z" fill="#FF7A00"/>
<path d="M66.4816 27.7142C68.3949 27.7142 69.9459 26.1631 69.9459 24.2499C69.9459 22.3366 68.3949 20.7856 66.4816 20.7856C64.5684 20.7856 63.0173 22.3366 63.0173 24.2499C63.0173 26.1631 64.5684 27.7142 66.4816 27.7142Z" fill="#FF7A00"/>
<path d="M42.2315 27.7142C44.1448 27.7142 45.6958 26.1631 45.6958 24.2499C45.6958 22.3366 44.1448 20.7856 42.2315 20.7856C40.3182 20.7856 38.7672 22.3366 38.7672 24.2499C38.7672 26.1631 40.3182 27.7142 42.2315 27.7142Z" fill="#FF7A00"/>
<path d="M57.8209 93.5357H42.9556L44.7213 81.9996C47.8777 82.7541 51.1113 83.1378 54.3566 83.1428H85.5352C85.9946 83.1428 86.4352 82.9603 86.76 82.6355C87.0849 82.3106 87.2673 81.8701 87.2673 81.4107C87.2673 80.9513 87.0849 80.5107 86.76 80.1859C86.4352 79.861 85.9946 79.6785 85.5352 79.6785H70.9469C77.7974 76.6974 83.7178 71.925 88.0852 65.8634C92.4526 59.8018 95.1054 52.6751 95.7647 45.2332C96.4239 37.7913 95.0652 30.3092 91.8314 23.5743C88.5976 16.8393 83.6084 11.1005 77.3886 6.9615C71.1688 2.82254 63.9484 0.436489 56.4871 0.0544026C49.0258 -0.327684 41.5995 1.30832 34.9894 4.79027C28.3793 8.27223 22.83 13.4714 18.9251 19.8408C15.0203 26.2102 12.9044 33.5143 12.8 40.9846L10.0067 42.1751C9.77115 42.2786 9.56212 42.4341 9.39531 42.6299C9.2285 42.8258 9.10826 43.0569 9.04363 43.3059L8.04106 41.0986C7.85085 40.6805 7.50244 40.3549 7.07237 40.1935C6.6423 40.032 6.16574 40.0479 5.74735 40.2376L1.01617 42.3866C0.809002 42.4807 0.62239 42.6146 0.466993 42.7808C0.311596 42.947 0.190458 43.1421 0.110499 43.3551C0.0305392 43.5681 -0.00667504 43.7948 0.000981081 44.0222C0.0086372 44.2495 0.0610138 44.4732 0.155119 44.6803L7.39809 60.6249H6.23928C5.98967 60.625 5.74301 60.6789 5.5162 60.7832C5.2894 60.8874 5.0878 61.0395 4.92522 61.2289C4.76264 61.4183 4.64292 61.6406 4.57426 61.8806C4.50559 62.1206 4.48961 62.3726 4.5274 62.6193L9.5657 95.5301C9.62835 95.9391 9.83536 96.3122 10.1493 96.5818C10.4632 96.8515 10.8633 96.9998 11.2771 97H57.8209C58.2803 97 58.7208 96.8175 59.0457 96.4927C59.3705 96.1678 59.553 95.7272 59.553 95.2678C59.553 94.8084 59.3705 94.3679 59.0457 94.043C58.7208 93.7182 58.2803 93.5357 57.8209 93.5357ZM19.9361 43.3208L21.6488 43.5796L19.0677 60.6249H17.316L19.9361 43.3208ZM33.3255 36.5612L35.0035 36.9867L33.2713 43.8167L32.8662 43.878C32.6413 43.9121 32.4253 43.9902 32.2305 44.1078C32.0358 44.2253 31.8661 44.3801 31.7312 44.5633C31.5963 44.7464 31.4988 44.9544 31.4442 45.1752C31.3897 45.3961 31.3791 45.6255 31.4133 45.8504L31.9156 49.1652L29.0118 60.6249H27.2244L33.3255 36.5612ZM40.4994 47.9896L42.1969 44.0038L43.7905 44.6829L40.9925 51.249L40.4994 47.9896ZM45.8691 41.8029L42.494 40.3652C42.5998 40.2062 42.7427 40.0753 42.9103 39.9836C43.0779 39.892 43.2652 39.8424 43.4562 39.8392H46.7608L45.8691 41.8029ZM38.4697 57.7281C38.4899 57.7972 38.5145 57.865 38.5435 57.9309L37.3197 60.6249H37.1564L35.1001 47.0435L36.8129 46.7847L38.4697 57.7281ZM49.4141 42.3764L50.9903 43.0928L43.027 60.6249H41.1252L49.4141 42.3764ZM54.3566 3.46409C59.7504 3.46051 65.0834 4.60199 70.0032 6.81306C74.923 9.02414 79.3173 12.2544 82.8956 16.2903C86.4739 20.3262 89.1547 25.0758 90.7607 30.2249C92.3667 35.374 92.8613 40.8055 92.2118 46.16C91.5623 51.5145 89.7836 56.6702 86.9931 61.286C84.2026 65.9019 80.464 69.8728 76.0246 72.9361C71.5851 75.9995 66.546 78.0855 61.2402 79.0563C55.9345 80.027 50.4832 79.8604 45.2467 78.5674L47.6878 62.6193C47.7478 62.2574 47.6882 61.8858 47.5181 61.5607C47.3479 61.2357 47.0766 60.9749 46.745 60.8179L51.6321 50.0588C52.5462 50.1707 53.4661 50.2286 54.3871 50.232C60.3718 50.232 65.9268 47.9146 68.8851 44.1839C69.4608 43.4643 69.8202 42.596 69.9214 41.68C70.0226 40.7641 69.8615 39.8382 69.4567 39.0103C69.0854 38.2224 68.4977 37.5562 67.7622 37.0896C67.0266 36.623 66.1736 36.3751 65.3025 36.3749H43.4562C42.7089 36.3746 41.9728 36.5563 41.3115 36.9042C40.6502 37.2521 40.0835 37.7558 39.6604 38.3717C39.2258 38.9809 38.9411 39.684 38.8293 40.424C38.7174 41.1639 38.7816 41.9197 39.0167 42.6302L38.7828 43.1791C38.5332 43.0945 38.2676 43.0673 38.006 43.0996L36.9894 43.2536L38.7884 36.1584C38.9011 35.7131 38.8324 35.2413 38.5974 34.8467C38.3624 34.4521 37.9802 34.167 37.535 34.0541L32.4984 32.777C32.278 32.7209 32.0486 32.7089 31.8234 32.7415C31.5983 32.7742 31.3818 32.8509 31.1863 32.9673C30.9909 33.0837 30.8203 33.2376 30.6843 33.42C30.5484 33.6024 30.4498 33.8098 30.3941 34.0304L28.3744 41.9959V34.6427C28.3744 34.1833 28.1919 33.7428 27.867 33.4179C27.5422 33.0931 27.1016 32.9106 26.6422 32.9106H21.4458C20.9864 32.9106 20.5458 33.0931 20.221 33.4179C19.8961 33.7428 19.7136 34.1833 19.7136 34.6427V39.7823L18.7436 39.6353C18.2894 39.5683 17.8271 39.6825 17.4563 39.9533C17.1843 40.1669 16.9834 40.4577 16.8799 40.7877C16.7291 40.5581 16.5246 40.3687 16.2842 40.2358C16.6398 30.3717 20.8051 21.0294 27.9049 14.1722C35.0046 7.31495 44.486 3.47673 54.3566 3.46409ZM4.02629 44.825L5.60255 44.1086L13.1045 60.6249H11.2031L4.02629 44.825ZM12.7639 93.5357L8.25602 64.0892H43.9587L39.4506 93.5357H12.7639Z" fill="#FF7A00"/>
<path d="M97.6603 93.5357H66.4817C66.0223 93.5357 65.5817 93.7182 65.2568 94.043C64.932 94.3679 64.7495 94.8085 64.7495 95.2679C64.7495 95.7272 64.932 96.1678 65.2568 96.4927C65.5817 96.8175 66.0223 97 66.4817 97H97.6603C98.1197 97 98.5603 96.8175 98.8851 96.4927C99.2099 96.1678 99.3924 95.7272 99.3924 95.2679C99.3924 94.8085 99.2099 94.3679 98.8851 94.043C98.5603 93.7182 98.1197 93.5357 97.6603 93.5357Z" fill="#FF7A00"/>
</g>
</svg>
