<svg width="209" height="209" viewBox="0 0 209 209" fill="none" xmlns="http://www.w3.org/2000/svg">
<circle cx="104.5" cy="104.5" r="104.5" fill="white"/>
<path d="M173.397 57.2032C172.565 57.2032 171.753 57.4497 171.061 57.9116C170.37 58.3735 169.831 59.0299 169.513 59.798C169.195 60.5661 169.112 61.4112 169.274 62.2266C169.436 63.042 169.837 63.7909 170.424 64.3788C171.012 64.9666 171.761 65.367 172.577 65.5291C173.392 65.6913 174.237 65.6081 175.005 65.2899C175.773 64.9718 176.43 64.433 176.892 63.7418C177.353 63.0506 177.6 62.2379 177.6 61.4065C177.599 60.2921 177.156 59.2237 176.368 58.4357C175.58 57.6477 174.511 57.2044 173.397 57.2032ZM173.397 62.8077C173.12 62.8077 172.849 62.7255 172.618 62.5715C172.388 62.4176 172.208 62.1988 172.102 61.9427C171.996 61.6867 171.968 61.405 172.022 61.1332C172.077 60.8614 172.21 60.6118 172.406 60.4158C172.602 60.2199 172.852 60.0864 173.123 60.0323C173.395 59.9783 173.677 60.006 173.933 60.1121C174.189 60.2181 174.408 60.3977 174.562 60.6281C174.716 60.8585 174.798 61.1294 174.798 61.4065C174.797 61.778 174.65 62.1341 174.387 62.3968C174.124 62.6594 173.768 62.8072 173.397 62.8077Z" fill="#FF7A00"/>
<path d="M104.742 64.2088C105.516 64.2088 106.143 63.5815 106.143 62.8077C106.143 62.0339 105.516 61.4066 104.742 61.4066C103.968 61.4066 103.341 62.0339 103.341 62.8077C103.341 63.5815 103.968 64.2088 104.742 64.2088Z" fill="#FF7A00"/>
<path d="M115.25 110.446C114.003 110.446 112.784 110.816 111.747 111.508C110.71 112.201 109.902 113.186 109.425 114.338C108.948 115.49 108.823 116.758 109.066 117.981C109.31 119.204 109.91 120.327 110.792 121.209C111.674 122.091 112.797 122.691 114.02 122.935C115.243 123.178 116.511 123.053 117.663 122.576C118.815 122.099 119.8 121.291 120.493 120.254C121.185 119.217 121.555 117.998 121.555 116.751C121.553 115.079 120.888 113.477 119.706 112.295C118.524 111.112 116.922 110.448 115.25 110.446Z" fill="#FF7A00"/>
<path d="M148.176 75.4178C149.724 75.4178 150.979 74.1632 150.979 72.6155C150.979 71.0679 149.724 69.8133 148.176 69.8133C146.629 69.8133 145.374 71.0679 145.374 72.6155C145.374 74.1632 146.629 75.4178 148.176 75.4178Z" fill="#FF7A00"/>
<path d="M128.561 75.4178C130.108 75.4178 131.363 74.1632 131.363 72.6155C131.363 71.0679 130.108 69.8133 128.561 69.8133C127.013 69.8133 125.759 71.0679 125.759 72.6155C125.759 74.1632 127.013 75.4178 128.561 75.4178Z" fill="#FF7A00"/>
<path d="M141.171 128.66H129.146L130.575 119.329C133.128 119.939 135.744 120.25 138.369 120.254H163.589C163.96 120.254 164.317 120.106 164.58 119.843C164.842 119.58 164.99 119.224 164.99 118.852C164.99 118.481 164.842 118.125 164.58 117.862C164.317 117.599 163.96 117.451 163.589 117.451H151.788C157.33 115.04 162.119 111.18 165.651 106.276C169.184 101.373 171.33 95.6085 171.863 89.5888C172.397 83.5691 171.297 77.5169 168.682 72.0691C166.066 66.6212 162.03 61.9791 156.999 58.6311C151.968 55.2831 146.127 53.3531 140.092 53.044C134.057 52.7349 128.049 54.0583 122.703 56.8748C117.356 59.6913 112.867 63.8969 109.708 69.0491C106.55 74.2012 104.838 80.1095 104.754 86.1522L102.494 87.1152C102.304 87.1988 102.135 87.3246 102 87.483C101.865 87.6414 101.768 87.8284 101.715 88.0298L100.904 86.2444C100.75 85.9061 100.469 85.6428 100.121 85.5122C99.7729 85.3816 99.3874 85.3944 99.049 85.5479L95.222 87.2862C95.0544 87.3623 94.9034 87.4706 94.7777 87.6051C94.652 87.7395 94.5541 87.8973 94.4894 88.0696C94.4247 88.2419 94.3946 88.4253 94.4008 88.6092C94.407 88.7931 94.4494 88.974 94.5255 89.1416L100.384 102.039H99.4469C99.245 102.039 99.0455 102.083 98.862 102.167C98.6786 102.251 98.5155 102.374 98.384 102.528C98.2525 102.681 98.1556 102.861 98.1001 103.055C98.0445 103.249 98.0316 103.453 98.0622 103.652L102.138 130.274C102.188 130.604 102.356 130.906 102.61 131.124C102.864 131.342 103.187 131.462 103.522 131.463H141.171C141.542 131.463 141.899 131.315 142.162 131.052C142.424 130.789 142.572 130.433 142.572 130.061C142.572 129.69 142.424 129.333 142.162 129.071C141.899 128.808 141.542 128.66 141.171 128.66ZM110.526 88.0419L111.912 88.2512L109.824 102.039H108.407L110.526 88.0419ZM121.357 82.5741L122.714 82.9182L121.313 88.443L120.985 88.4926C120.803 88.5202 120.629 88.5833 120.471 88.6784C120.314 88.7735 120.176 88.8987 120.067 89.0469C119.958 89.1951 119.879 89.3633 119.835 89.5419C119.791 89.7205 119.782 89.9061 119.81 90.088L120.216 92.7694L117.867 102.039H116.422L121.357 82.5741ZM127.16 91.8184L128.533 88.5943L129.822 89.1437L127.559 94.4549L127.16 91.8184ZM131.503 86.814L128.773 85.6511C128.859 85.5225 128.974 85.4166 129.11 85.3425C129.245 85.2683 129.397 85.2282 129.551 85.2256H132.224L131.503 86.814ZM125.518 99.6958C125.534 99.7517 125.554 99.8065 125.578 99.8599L124.588 102.039H124.455L122.792 91.0531L124.178 90.8438L125.518 99.6958ZM134.371 87.278L135.646 87.8575L129.204 102.039H127.666L134.371 87.278ZM138.369 55.8021C142.732 55.7992 147.046 56.7225 151.025 58.511C155.005 60.2996 158.559 62.9125 161.454 66.1771C164.348 69.4417 166.517 73.2836 167.816 77.4487C169.115 81.6138 169.515 86.0072 168.989 90.3385C168.464 94.6697 167.025 98.8401 164.768 102.574C162.511 106.308 159.487 109.52 155.896 111.998C152.305 114.475 148.229 116.163 143.937 116.948C139.645 117.733 135.235 117.598 131 116.553L132.974 103.652C133.023 103.36 132.975 103.059 132.837 102.796C132.699 102.533 132.48 102.322 132.212 102.195L136.165 93.4922C136.904 93.5827 137.648 93.6295 138.393 93.6323C143.234 93.6323 147.728 91.7578 150.121 88.74C150.586 88.158 150.877 87.4556 150.959 86.7147C151.041 85.9738 150.91 85.2248 150.583 84.5552C150.283 83.9178 149.807 83.379 149.212 83.0015C148.617 82.6241 147.927 82.4235 147.223 82.4234H129.551C128.947 82.4232 128.352 82.5701 127.817 82.8515C127.282 83.133 126.823 83.5404 126.481 84.0386C126.129 84.5314 125.899 85.1001 125.809 85.6986C125.718 86.2971 125.77 86.9086 125.96 87.4832L125.771 87.9272C125.569 87.8588 125.354 87.8368 125.143 87.8629L124.32 87.9875L125.776 82.2482C125.867 81.8881 125.811 81.5064 125.621 81.1873C125.431 80.8681 125.122 80.6375 124.762 80.5461L120.688 79.5131C120.509 79.4677 120.324 79.458 120.142 79.4844C119.96 79.5108 119.785 79.5729 119.626 79.667C119.468 79.7612 119.33 79.8856 119.22 80.0332C119.11 80.1807 119.031 80.3485 118.986 80.5269L117.352 86.9701V81.0222C117.352 80.6506 117.204 80.2943 116.941 80.0315C116.679 79.7687 116.322 79.6211 115.951 79.6211H111.747C111.376 79.6211 111.019 79.7687 110.757 80.0315C110.494 80.2943 110.346 80.6506 110.346 81.0222V85.1796L109.562 85.0607C109.194 85.0065 108.82 85.0989 108.52 85.3179C108.3 85.4907 108.138 85.726 108.054 85.9929C107.932 85.8071 107.767 85.6539 107.572 85.5465C107.86 77.5674 111.229 70.0105 116.972 64.4638C122.715 58.917 130.384 55.8123 138.369 55.8021ZM97.6568 89.2586L98.9319 88.6791L105 102.039H103.462L97.6568 89.2586ZM104.725 128.66L101.078 104.841H129.958L126.311 128.66H104.725Z" fill="#FF7A00"/>
<path d="M173.397 128.66H148.176C147.805 128.66 147.448 128.808 147.186 129.071C146.923 129.333 146.775 129.69 146.775 130.061C146.775 130.433 146.923 130.789 147.186 131.052C147.448 131.315 147.805 131.463 148.176 131.463H173.397C173.768 131.463 174.125 131.315 174.387 131.052C174.65 130.789 174.798 130.433 174.798 130.061C174.798 129.69 174.65 129.333 174.387 129.071C174.125 128.808 173.768 128.66 173.397 128.66Z" fill="#FF7A00"/>
<rect x="32" y="115" width="145.6" height="41.6" rx="7" fill="#FF7A00"/>
<path d="M59.936 147.584C59.804 146.763 59.7087 145.758 59.65 144.57C59.5913 143.382 59.562 142.099 59.562 140.72C59.562 139.297 59.584 137.838 59.628 136.342C59.6867 134.846 59.7527 133.409 59.826 132.03C59.914 130.637 60.0093 129.405 60.112 128.334L63.94 128.4C63.7787 129.427 63.6467 130.571 63.544 131.832C63.456 133.079 63.3827 134.377 63.324 135.726C64.3653 135.579 65.4947 135.469 66.712 135.396C67.9293 135.323 69.1027 135.286 70.232 135.286C70.7747 135.286 71.2953 135.301 71.794 135.33C71.7793 134.23 71.7573 133.203 71.728 132.25C71.6987 131.297 71.662 130.49 71.618 129.83C71.574 129.17 71.5227 128.715 71.464 128.466L75.248 128.224C75.38 129.456 75.4827 130.93 75.556 132.646C75.644 134.362 75.688 136.181 75.688 138.102C75.688 139.657 75.6587 141.241 75.6 142.854C75.5413 144.453 75.4387 145.993 75.292 147.474H71.618C71.6767 147.005 71.7207 146.367 71.75 145.56C71.7793 144.739 71.8013 143.815 71.816 142.788C71.8307 141.747 71.838 140.661 71.838 139.532C71.838 139.327 71.838 139.114 71.838 138.894C71.5593 138.894 71.2733 138.894 70.98 138.894C70.7013 138.879 70.4153 138.872 70.122 138.872C68.9633 138.872 67.79 138.916 66.602 139.004C65.4287 139.077 64.3067 139.187 63.236 139.334C63.236 139.803 63.236 140.273 63.236 140.742C63.236 142.033 63.2433 143.243 63.258 144.372C63.2873 145.501 63.3313 146.528 63.39 147.452L59.936 147.584ZM83.19 147.804C82.2513 147.804 81.474 147.635 80.858 147.298C80.2567 146.975 79.7727 146.528 79.406 145.956C79.054 145.384 78.79 144.746 78.614 144.042C78.4527 143.323 78.3427 142.583 78.284 141.82C78.24 141.043 78.218 140.295 78.218 139.576C78.218 138.755 78.24 137.919 78.284 137.068C78.3427 136.217 78.4013 135.286 78.46 134.274L82.486 134.032C82.442 134.34 82.376 134.802 82.288 135.418C82.2 136.034 82.1193 136.738 82.046 137.53C81.9727 138.322 81.936 139.151 81.936 140.016C81.936 141.439 82.0607 142.495 82.31 143.184C82.5593 143.859 82.9333 144.196 83.432 144.196C84.4293 144.196 85.1627 143.47 85.632 142.018C86.1013 140.566 86.336 138.271 86.336 135.132V134.12L88.206 134.076L90.472 134.032C90.2667 135.411 90.1127 136.679 90.01 137.838C89.9073 138.997 89.8413 139.972 89.812 140.764C89.7827 141.541 89.768 142.062 89.768 142.326C89.768 143.001 89.8267 143.485 89.944 143.778C90.0613 144.057 90.2667 144.196 90.56 144.196C90.7067 144.196 90.868 144.167 91.044 144.108C91.22 144.049 91.4253 143.947 91.66 143.8L91.506 147.584C90.9487 147.672 90.4647 147.716 90.054 147.716C89.35 147.716 88.7707 147.584 88.316 147.32C87.876 147.056 87.524 146.704 87.26 146.264C86.8053 146.748 86.2407 147.122 85.566 147.386C84.906 147.665 84.114 147.804 83.19 147.804ZM93.65 147.584C93.606 146.293 93.5693 145.098 93.54 143.998C93.5253 142.898 93.518 141.813 93.518 140.742C93.518 139.671 93.5253 138.601 93.54 137.53C93.5693 136.445 93.6133 135.286 93.672 134.054H97.39C97.3313 134.714 97.28 135.381 97.236 136.056C97.7346 135.425 98.3286 134.905 99.018 134.494C99.7073 134.069 100.521 133.856 101.46 133.856C102.384 133.856 103.139 134.01 103.726 134.318C104.327 134.626 104.797 135.051 105.134 135.594C105.486 136.137 105.735 136.76 105.882 137.464C106.043 138.153 106.146 138.901 106.19 139.708C106.234 140.5 106.256 141.299 106.256 142.106C106.256 142.986 106.241 143.829 106.212 144.636C106.183 145.443 106.153 146.117 106.124 146.66C106.095 147.203 106.073 147.525 106.058 147.628H102.362C102.391 147.027 102.421 146.389 102.45 145.714C102.479 145.025 102.509 144.35 102.538 143.69C102.567 143.015 102.582 142.407 102.582 141.864C102.582 138.74 102.076 137.178 101.064 137.178C100.228 137.178 99.4653 137.545 98.776 138.278C98.1013 138.997 97.5366 139.906 97.082 141.006C97.082 141.153 97.082 141.299 97.082 141.446C97.082 142.15 97.082 142.883 97.082 143.646C97.0966 144.394 97.1113 145.113 97.126 145.802C97.1553 146.477 97.1773 147.063 97.192 147.562L93.65 147.584ZM113.51 146.11C112.586 146.11 111.801 145.971 111.156 145.692C110.51 145.413 109.975 145.054 109.55 144.614C109.139 144.159 108.816 143.675 108.582 143.162C108.347 142.634 108.186 142.128 108.098 141.644C108.01 141.145 107.966 140.713 107.966 140.346C107.966 139.642 108.061 138.916 108.252 138.168C108.457 137.42 108.794 136.723 109.264 136.078C109.748 135.433 110.4 134.912 111.222 134.516C112.058 134.12 113.106 133.922 114.368 133.922C114.749 133.922 115.101 133.951 115.424 134.01C115.746 134.069 116.047 134.149 116.326 134.252V133.526H120.132C120.117 134.406 120.102 135.403 120.088 136.518C120.073 137.618 120.066 138.865 120.066 140.258C120.066 140.977 120.066 141.732 120.066 142.524C120.08 143.301 120.088 144.152 120.088 145.076C120.088 146.337 119.919 147.371 119.582 148.178C119.244 148.985 118.812 149.608 118.284 150.048C117.756 150.488 117.206 150.803 116.634 150.994C116.076 151.199 115.556 151.317 115.072 151.346C114.602 151.39 114.25 151.412 114.016 151.412C113.444 151.412 112.813 151.346 112.124 151.214C111.434 151.097 110.745 150.899 110.056 150.62C109.366 150.356 108.736 150.011 108.164 149.586L109.77 146.242C110.136 146.55 110.503 146.829 110.87 147.078C111.236 147.342 111.662 147.547 112.146 147.694C112.63 147.855 113.231 147.936 113.95 147.936C114.683 147.936 115.226 147.804 115.578 147.54C115.93 147.291 116.157 146.953 116.26 146.528C116.377 146.117 116.443 145.663 116.458 145.164C115.959 145.531 115.453 145.78 114.94 145.912C114.426 146.044 113.95 146.11 113.51 146.11ZM111.266 140.038C111.266 140.874 111.493 141.534 111.948 142.018C112.417 142.502 113.055 142.744 113.862 142.744C114.991 142.744 115.834 142.091 116.392 140.786C116.392 140.317 116.384 139.84 116.37 139.356C116.37 138.857 116.362 138.373 116.348 137.904C115.761 137.523 115.086 137.332 114.324 137.332C113.385 137.332 112.637 137.581 112.08 138.08C111.537 138.564 111.266 139.217 111.266 140.038ZM121.939 147.716C121.997 146.499 122.041 145.281 122.071 144.064C122.1 142.847 122.115 141.644 122.115 140.456C122.1 139.371 122.078 138.3 122.049 137.244C122.034 136.173 121.997 135.139 121.939 134.142L125.635 134.032C125.649 134.575 125.671 135.132 125.701 135.704C126.17 135.117 126.713 134.648 127.329 134.296C127.959 133.929 128.678 133.746 129.485 133.746C129.793 133.746 130.189 133.79 130.673 133.878C131.157 133.966 131.648 134.135 132.147 134.384L131.729 138.102C131.362 137.882 130.966 137.728 130.541 137.64C130.13 137.537 129.785 137.486 129.507 137.486C128.568 137.486 127.769 137.911 127.109 138.762C126.463 139.598 126.023 140.764 125.789 142.26C125.789 143.287 125.774 144.269 125.745 145.208C125.73 146.132 125.693 146.968 125.635 147.716H121.939ZM136.568 151.962L133.268 150.202C134.09 149.293 134.889 148.354 135.666 147.386C136.444 146.433 137.184 145.45 137.888 144.438C137.199 143.514 136.51 142.524 135.82 141.468C135.131 140.397 134.493 139.349 133.906 138.322C133.32 137.295 132.843 136.379 132.476 135.572L135.996 134.032C136.26 134.736 136.598 135.499 137.008 136.32C137.434 137.141 137.896 137.977 138.394 138.828C138.908 139.679 139.436 140.493 139.978 141.27C141.562 138.703 142.868 136.173 143.894 133.68L147.546 135.132C146.886 136.393 146.138 137.75 145.302 139.202C144.481 140.639 143.594 142.106 142.64 143.602C141.702 145.083 140.719 146.535 139.692 147.958C138.666 149.395 137.624 150.73 136.568 151.962Z" fill="white"/>
</svg>
